<svg width="16" height="20" viewBox="0 0 16 20" fill="none" xmlns="http://www.w3.org/2000/svg">
<path d="M15.5045 5.01339L10.7009 0.209821C10.567 0.0758929 10.3862 0 10.1964 0H0.714286C0.319196 0 0 0.319196 0 0.714286V19.2857C0 19.6808 0.319196 20 0.714286 20H15C15.3951 20 15.7143 19.6808 15.7143 19.2857V5.52009C15.7143 5.33036 15.6384 5.14732 15.5045 5.01339ZM14.067 5.84821H9.86607V1.64732L14.067 5.84821ZM14.1071 18.3929H1.60714V1.60714H8.34821V6.42857C8.34821 6.67721 8.44699 6.91567 8.6228 7.09148C8.79862 7.2673 9.03707 7.36607 9.28571 7.36607H14.1071V18.3929ZM8.57143 9.10714C8.57143 9.00893 8.49107 8.92857 8.39286 8.92857H7.32143C7.22321 8.92857 7.14286 9.00893 7.14286 9.10714V11.5179H4.73214C4.63393 11.5179 4.55357 11.5982 4.55357 11.6964V12.7679C4.55357 12.8661 4.63393 12.9464 4.73214 12.9464H7.14286V15.3571C7.14286 15.4554 7.22321 15.5357 7.32143 15.5357H8.39286C8.49107 15.5357 8.57143 15.4554 8.57143 15.3571V12.9464H10.9821C11.0804 12.9464 11.1607 12.8661 11.1607 12.7679V11.6964C11.1607 11.5982 11.0804 11.5179 10.9821 11.5179H8.57143V9.10714Z" fill="white"/>
</svg>
