<svg width="20" height="19" viewBox="0 0 20 19" fill="none" xmlns="http://www.w3.org/2000/svg">
<path d="M19.5853 9.29297L11.0611 0.77327L10.4898 0.201908C10.3596 0.0725824 10.1835 0 10 0C9.81654 0 9.64048 0.0725824 9.5103 0.201908L0.414826 9.29297C0.281429 9.42584 0.176004 9.5841 0.104772 9.75839C0.0335409 9.93268 -0.002053 10.1195 9.14394e-05 10.3077C0.00891557 11.0843 0.655283 11.7042 1.43181 11.7042H2.36937V18.8892H17.6307V11.7042H18.5881C18.9654 11.7042 19.3205 11.5564 19.5875 11.2894C19.7189 11.1584 19.823 11.0026 19.8938 10.8311C19.9647 10.6596 20.0007 10.4757 20 10.2901C20 9.91507 19.8522 9.5599 19.5853 9.29297ZM11.2354 18.8892H8.76466V12.8006H11.2354V18.8892ZM16.0424 10.1158V17.3009H12.6473V12.2711C12.6473 11.7836 12.2524 11.3887 11.7649 11.3887H8.23521C7.74768 11.3887 7.3528 11.7836 7.3528 12.2711V17.3009H3.95771V10.1158H1.83992L10.0022 1.96012L10.5118 2.46971L18.1624 10.1158H16.0424Z" fill="white"/>
</svg>
