<svg width="21" height="21" viewBox="0 0 21 21" fill="none" xmlns="http://www.w3.org/2000/svg">
<path d="M19.32 3.78H15.96V1.68C15.96 0.753375 15.2066 0 14.28 0H5.88C4.95337 0 4.2 0.753375 4.2 1.68V3.78H0.84C0.375375 3.78 0 4.15537 0 4.62V5.46C0 5.5755 0.0945 5.67 0.21 5.67H1.7955L2.44388 19.3987C2.48588 20.2939 3.22612 21 4.12125 21H16.0387C16.9365 21 17.6741 20.2965 17.7161 19.3987L18.3645 5.67H19.95C20.0655 5.67 20.16 5.5755 20.16 5.46V4.62C20.16 4.15537 19.7846 3.78 19.32 3.78ZM6.09 1.89H14.07V3.78H6.09V1.89ZM15.8366 19.11H4.32338L3.68812 5.67H16.4719L15.8366 19.11Z" fill="white"/>
<line x1="6.83013" y1="17.0124" x2="6.67306" y2="8.01379" stroke="white" stroke-width="1.5"/>
<line x1="13.6701" y1="16.9862" x2="13.8272" y2="7.98761" stroke="white" stroke-width="1.5"/>
<line x1="10.25" y1="17" x2="10.25" y2="8" stroke="white" stroke-width="1.5"/>
</svg>
