<svg width="48" height="50" viewBox="0 0 48 50" fill="none" xmlns="http://www.w3.org/2000/svg">
<path d="M45.3833 40.804C44.1984 37.9973 42.4789 35.4479 40.3205 33.2977C38.1687 31.1414 35.6197 29.4221 32.8142 28.2349C32.7891 28.2224 32.764 28.2161 32.7388 28.2035C36.6522 25.3769 39.1961 20.7726 39.1961 15.5779C39.1961 6.97236 32.2238 0 23.6182 0C15.0127 0 8.04036 6.97236 8.04036 15.5779C8.04036 20.7726 10.5843 25.3769 14.4976 28.2098C14.4725 28.2224 14.4474 28.2286 14.4223 28.2412C11.6082 29.4284 9.08307 31.1307 6.91599 33.304C4.75964 35.4558 3.04039 38.0048 1.85317 40.8103C0.686854 43.5569 0.0578325 46.5015 0.000157073 49.4849C-0.00151947 49.552 0.0102395 49.6187 0.0347414 49.6811C0.0592433 49.7435 0.0959923 49.8004 0.142823 49.8484C0.189654 49.8964 0.245618 49.9345 0.307419 49.9606C0.369221 49.9866 0.435608 50 0.50267 50H4.27151C4.5479 50 4.76774 49.7802 4.77403 49.5101C4.89965 44.6608 6.84689 40.1193 10.2891 36.6771C13.8507 33.1156 18.5806 31.1558 23.6182 31.1558C28.6559 31.1558 33.3858 33.1156 36.9474 36.6771C40.3896 40.1193 42.3368 44.6608 42.4625 49.5101C42.4687 49.7864 42.6886 50 42.965 50H46.7338C46.8009 50 46.8673 49.9866 46.9291 49.9606C46.9909 49.9345 47.0468 49.8964 47.0937 49.8484C47.1405 49.8004 47.1772 49.7435 47.2017 49.6811C47.2263 49.6187 47.238 49.552 47.2363 49.4849C47.1735 46.4824 46.5517 43.5616 45.3833 40.804V40.804ZM23.6182 26.3819C20.7351 26.3819 18.0215 25.2575 15.9801 23.2161C13.9386 21.1746 12.8142 18.4611 12.8142 15.5779C12.8142 12.6947 13.9386 9.98116 15.9801 7.9397C18.0215 5.89824 20.7351 4.77387 23.6182 4.77387C26.5014 4.77387 29.215 5.89824 31.2564 7.9397C33.2979 9.98116 34.4223 12.6947 34.4223 15.5779C34.4223 18.4611 33.2979 21.1746 31.2564 23.2161C29.215 25.2575 26.5014 26.3819 23.6182 26.3819Z" fill="white"/>
</svg>
