<svg width="50" height="50" viewBox="0 0 50 50" fill="none" xmlns="http://www.w3.org/2000/svg">
<path d="M33.1201 31.3672C34.3018 30.7324 35.6543 30.3711 37.0947 30.3711H37.0996C37.2461 30.3711 37.3145 30.1953 37.207 30.0977C35.7091 28.7533 33.9979 27.6675 32.1436 26.8848C32.124 26.875 32.1045 26.8701 32.085 26.8604C35.1172 24.6582 37.0898 21.0791 37.0898 17.041C37.0898 10.3516 31.6797 4.93164 25.0049 4.93164C18.3301 4.93164 12.9248 10.3516 12.9248 17.041C12.9248 21.0791 14.8975 24.6582 17.9346 26.8604C17.915 26.8701 17.8955 26.875 17.876 26.8848C15.6934 27.8076 13.7354 29.1309 12.0508 30.8203C10.3759 32.4921 9.04255 34.474 8.125 36.6553C7.22223 38.7913 6.73502 41.0799 6.68945 43.3984C6.68815 43.4506 6.69729 43.5024 6.71634 43.5509C6.73538 43.5994 6.76395 43.6437 6.80035 43.681C6.83676 43.7183 6.88026 43.7479 6.9283 43.7682C6.97634 43.7884 7.02795 43.7988 7.08008 43.7988H10.0049C10.2148 43.7988 10.3906 43.6279 10.3955 43.418C10.4932 39.6484 12.002 36.1182 14.6729 33.4424C17.4316 30.6738 21.1035 29.1504 25.0098 29.1504C27.7783 29.1504 30.4346 29.917 32.7246 31.3525C32.7834 31.3895 32.851 31.4103 32.9204 31.4129C32.9898 31.4155 33.0587 31.3997 33.1201 31.3672V31.3672ZM25.0098 25.4395C22.7734 25.4395 20.6689 24.5654 19.082 22.9785C18.3012 22.1998 17.6823 21.2742 17.2607 20.2552C16.8392 19.2361 16.6235 18.1438 16.626 17.041C16.626 14.7998 17.5 12.6904 19.082 11.1035C20.6641 9.5166 22.7686 8.64258 25.0098 8.64258C27.251 8.64258 29.3506 9.5166 30.9375 11.1035C31.7183 11.8823 32.3373 12.8078 32.7588 13.8269C33.1803 14.8459 33.396 15.9382 33.3936 17.041C33.3936 19.2822 32.5195 21.3916 30.9375 22.9785C29.3506 24.5654 27.2461 25.4395 25.0098 25.4395ZM42.9688 37.0605H38.8672V32.959C38.8672 32.7441 38.6914 32.5684 38.4766 32.5684H35.7422C35.5273 32.5684 35.3516 32.7441 35.3516 32.959V37.0605H31.25C31.0352 37.0605 30.8594 37.2363 30.8594 37.4512V40.1855C30.8594 40.4004 31.0352 40.5762 31.25 40.5762H35.3516V44.6777C35.3516 44.8926 35.5273 45.0684 35.7422 45.0684H38.4766C38.6914 45.0684 38.8672 44.8926 38.8672 44.6777V40.5762H42.9688C43.1836 40.5762 43.3594 40.4004 43.3594 40.1855V37.4512C43.3594 37.2363 43.1836 37.0605 42.9688 37.0605Z" fill="white"/>
</svg>
