<svg width="22" height="22" viewBox="0 0 22 22" fill="none" xmlns="http://www.w3.org/2000/svg">
<path d="M13.9412 6V3.5C13.9412 2.83696 13.6933 2.20107 13.252 1.73223C12.8108 1.26339 12.2123 1 11.5883 1H3.35295C2.72891 1 2.13042 1.26339 1.68916 1.73223C1.2479 2.20107 1 2.83696 1 3.5V18.5C1 19.163 1.2479 19.7989 1.68916 20.2678C2.13042 20.7366 2.72891 21 3.35295 21H11.5883C12.2123 21 12.8108 20.7366 13.252 20.2678C13.6933 19.7989 13.9412 19.163 13.9412 18.5V16" stroke="white" stroke-width="2" stroke-linecap="round" stroke-linejoin="round"/>
<path d="M5.66667 11.0167L20.9608 11.0167M20.9608 11.0167L17.4314 14.7667M20.9608 11.0167L17.4314 7.26666" stroke="white" stroke-width="2" stroke-linecap="round" stroke-linejoin="round"/>
</svg>
