<svg width="46" height="50" viewBox="0 0 46 50" fill="none" xmlns="http://www.w3.org/2000/svg">
<path d="M32.9259 32.9319C34.398 32.1411 36.0829 31.691 37.8773 31.691H37.8834C38.0658 31.691 38.151 31.472 38.0172 31.3504C36.1511 29.6757 34.0194 28.3231 31.7094 27.3479C31.6851 27.3358 31.6607 27.3297 31.6364 27.3175C35.4138 24.5742 37.8712 20.1156 37.8712 15.0852C37.8712 6.75182 31.1315 0 22.8165 0C14.5014 0 7.76779 6.75182 7.76779 15.0852C7.76779 20.1156 10.2252 24.5742 14.0087 27.3175C13.9843 27.3297 13.96 27.3358 13.9357 27.3479C11.2167 28.4976 8.77752 30.146 6.67898 32.2506C4.59256 34.3332 2.9315 36.8021 1.78847 39.5195C0.663857 42.1804 0.056913 45.0314 0.000152105 47.9197C-0.00147141 47.9846 0.00991562 48.0492 0.0336425 48.1097C0.0573695 48.1701 0.092956 48.2252 0.138305 48.2717C0.183655 48.3182 0.237849 48.3551 0.297696 48.3803C0.357542 48.4055 0.42183 48.4185 0.48677 48.4185H4.13032C4.39188 48.4185 4.61086 48.2056 4.61694 47.944C4.73859 43.2482 6.61816 38.8504 9.94541 35.517C13.3821 32.0681 17.9564 30.1703 22.8225 30.1703C26.2714 30.1703 29.5804 31.1253 32.4332 32.9136C32.5065 32.9597 32.5907 32.9856 32.6771 32.9888C32.7636 32.992 32.8494 32.9724 32.9259 32.9319V32.9319ZM22.8225 25.5474C20.0366 25.5474 17.415 24.4586 15.4381 22.4818C14.4654 21.5116 13.6944 20.3586 13.1692 19.0892C12.6441 17.8197 12.3754 16.4589 12.3785 15.0852C12.3785 12.2932 13.4673 9.66545 15.4381 7.68856C17.4089 5.71168 20.0306 4.62287 22.8225 4.62287C25.6145 4.62287 28.2301 5.71168 30.207 7.68856C31.1796 8.6587 31.9507 9.81171 32.4758 11.0812C33.0009 12.3506 33.2697 13.7114 33.2666 15.0852C33.2666 17.8771 32.1778 20.5049 30.207 22.4818C28.2301 24.4586 25.6084 25.5474 22.8225 25.5474ZM45.1948 40.0243H40.0853V34.9148C40.0853 34.6472 39.8663 34.4282 39.5987 34.4282H36.1924C35.9247 34.4282 35.7057 34.6472 35.7057 34.9148V40.0243H30.5963C30.3286 40.0243 30.1096 40.2433 30.1096 40.5109V43.9173C30.1096 44.1849 30.3286 44.4039 30.5963 44.4039H35.7057V49.5134C35.7057 49.781 35.9247 50 36.1924 50H39.5987C39.8663 50 40.0853 49.781 40.0853 49.5134V44.4039H45.1948C45.4624 44.4039 45.6814 44.1849 45.6814 43.9173V40.5109C45.6814 40.2433 45.4624 40.0243 45.1948 40.0243Z" fill="white"/>
</svg>
