<svg width="20" height="20" viewBox="0 0 20 20" fill="none" xmlns="http://www.w3.org/2000/svg">
<path d="M10.0187 5C10.2176 5.0002 10.4082 5.08922 10.5487 5.2475L13.8037 8.90938C13.8774 8.98662 13.9365 9.07977 13.9775 9.18327C14.0185 9.28677 14.0405 9.3985 14.0423 9.51179C14.0441 9.62508 14.0256 9.73761 13.9878 9.84267C13.9501 9.94773 13.894 10.0432 13.8227 10.1233C13.7515 10.2034 13.6667 10.2666 13.5733 10.309C13.4799 10.3514 13.3799 10.3723 13.2792 10.3703C13.1785 10.3683 13.0792 10.3435 12.9872 10.2974C12.8952 10.2513 12.8124 10.1848 12.7437 10.1019L10.7687 7.88112V15.134C10.7687 15.3578 10.6897 15.5724 10.549 15.7306C10.4084 15.8889 10.2176 15.9778 10.0187 15.9778C9.8198 15.9778 9.62903 15.8889 9.48838 15.7306C9.34773 15.5724 9.26871 15.3578 9.26871 15.134V7.88337L7.29871 10.1019C7.23005 10.1848 7.14725 10.2513 7.05525 10.2974C6.96325 10.3435 6.86393 10.3683 6.76323 10.3703C6.66253 10.3723 6.5625 10.3514 6.46911 10.309C6.37572 10.2666 6.29089 10.2034 6.21967 10.1233C6.14845 10.0432 6.09231 9.94773 6.05459 9.84267C6.01686 9.73761 5.99834 9.62508 6.00012 9.51179C6.00189 9.3985 6.02394 9.28677 6.06493 9.18327C6.10592 9.07977 6.16502 8.98662 6.23871 8.90938L9.48871 5.24863C9.62923 5.09035 9.81986 5.00132 10.0187 5.00112V5Z" fill="black"/>
<path fill-rule="evenodd" clip-rule="evenodd" d="M3 0C1.34315 0 0 1.34315 0 3V17C0 18.6569 1.34315 20 3 20H17C18.6569 20 20 18.6569 20 17V3C20 1.34315 18.6569 0 17 0H3ZM4 2C2.89543 2 2 2.89543 2 4V16C2 17.1046 2.89543 18 4 18H16C17.1046 18 18 17.1046 18 16V4C18 2.89543 17.1046 2 16 2H4Z" fill="black"/>
</svg>
